<?xml version="1.0" encoding="UTF-8" standalone="no"?>
<!-- Generator: Adobe Illustrator 15.1.0, SVG Export Plug-In . SVG Version: 6.00 Build 0)  -->

<svg
   xmlns:dc="http://purl.org/dc/elements/1.1/"
   xmlns:cc="http://creativecommons.org/ns#"
   xmlns:rdf="http://www.w3.org/1999/02/22-rdf-syntax-ns#"
   xmlns:svg="http://www.w3.org/2000/svg"
   xmlns="http://www.w3.org/2000/svg"
   xmlns:sodipodi="http://sodipodi.sourceforge.net/DTD/sodipodi-0.dtd"
   xmlns:inkscape="http://www.inkscape.org/namespaces/inkscape"
   version="1.1"
   id="Layer_2"
   x="0px"
   y="0px"
   width="417.74063"
   height="436.85541"
   viewBox="0 0 417.74063 436.85541"
   enable-background="new 0 0 612 792"
   xml:space="preserve"
   inkscape:version="0.48.2 r9819"
   sodipodi:docname="ohm.svg"><metadata
   id="metadata3446"><rdf:RDF><cc:Work
       rdf:about=""><dc:format>image/svg+xml</dc:format><dc:type
         rdf:resource="http://purl.org/dc/dcmitype/StillImage" /><dc:title></dc:title></cc:Work></rdf:RDF></metadata><defs
   id="defs3444"><clipPath
     clipPathUnits="userSpaceOnUse"
     id="clipPath3546"><rect
       style="fill:#22241c;fill-opacity:1"
       id="rect3548"
       width="417.74063"
       height="415.37158"
       x="119.24165"
       y="189.4743" /></clipPath></defs><sodipodi:namedview
   pagecolor="#ffffff"
   bordercolor="#666666"
   borderopacity="1"
   objecttolerance="10"
   gridtolerance="10"
   guidetolerance="10"
   inkscape:pageopacity="0"
   inkscape:pageshadow="2"
   inkscape:window-width="1440"
   inkscape:window-height="852"
   id="namedview3442"
   showgrid="false"
   inkscape:zoom="1.266336"
   inkscape:cx="273.60497"
   inkscape:cy="245.75288"
   inkscape:window-x="0"
   inkscape:window-y="0"
   inkscape:window-maximized="0"
   inkscape:current-layer="Layer_2"
   fit-margin-top="0"
   fit-margin-left="0"
   fit-margin-right="0"
   fit-margin-bottom="0" />
<path
   d="m 274.02197,414.48039 c 0,0 24.096,0.281 48.798,-8.109 24.702,-8.39 25.577,11.609 25.577,11.609 l -46.5,18.875 -29.875,-13.418 2,-8.957 z"
   id="path3246"
   inkscape:connector-curvature="0"
   style="fill:#ffffff" />
<g
   id="g3248"
   transform="translate(-119.24165,-191.343)"
   clip-path="url(#clipPath3546)">
	<path
   d="m 197.986,362.473 c -0.042,-0.143 -0.095,-0.281 -0.137,-0.425 -0.871,-3.034 -1.423,-6.098 -1.685,-9.169 -3.208,6.458 -6.105,13.235 -8.659,20.287 3.093,-3.926 6.59,-7.509 10.481,-10.693"
   id="path3250"
   inkscape:connector-curvature="0" />
	<path
   d="m 287.211,556.219 c 12.242,-0.417 24.032,-3.72 34.569,-10.222 15.801,-9.751 26.447,-25.237 31.634,-43.599 -17.812,26.957 -41.34,46.157 -66.203,53.821"
   id="path3252"
   inkscape:connector-curvature="0" />
	<path
   d="m 287.211,556.219 c 12.242,-0.417 24.032,-3.72 34.569,-10.222 15.801,-9.751 26.447,-25.237 31.634,-43.599 -17.812,26.957 -41.34,46.157 -66.203,53.821"
   id="path3254"
   inkscape:connector-curvature="0" />
	<path
   d="m 198.218,363.195 c -0.076,-0.242 -0.16,-0.479 -0.232,-0.722 -3.891,3.184 -7.388,6.767 -10.481,10.692 -0.333,0.919 -0.664,1.841 -0.985,2.77 3.156,-4.854 7.058,-9.149 11.698,-12.74"
   id="path3256"
   inkscape:connector-curvature="0" />
	<path
   d="m 197.986,362.473 0,0 c -3.891,3.184 -7.388,6.767 -10.481,10.692 l 0,0 c -0.333,0.919 -0.664,1.841 -0.985,2.77 3.156,-4.854 7.058,-9.148 11.698,-12.74 -0.075,-0.242 -0.16,-0.479 -0.232,-0.722"
   id="path3258"
   inkscape:connector-curvature="0" />
	<path
   d="m 336.732,406.461 c -5.402,-8.754 -11.56,-16.655 -18.253,-23.631 -4.521,3.544 -9.524,6.722 -14.947,9.442 0.854,1.108 1.698,2.231 2.522,3.381 3.14,4.378 5.902,8.878 8.332,13.441 l 7.355,5.59 15.582,24.791 c 0,0 5.226,20.906 -11.547,2.902 4.245,26.487 -3.157,51.258 -22.03,64.791 -30.009,21.521 -77.631,6.483 -106.365,-33.587 -12.522,-17.462 -19.387,-36.796 -20.668,-54.836 -2.165,18.462 -1.618,36.336 1.313,52.812 3.159,8.542 7.26,17.014 12.33,25.229 23.779,38.534 62.137,60.615 96.854,59.434 24.863,-7.664 48.39,-26.863 66.203,-53.82 8.082,-28.608 2.908,-64.193 -16.681,-95.939"
   id="path3260"
   inkscape:connector-curvature="0" />
	<path
   d="m 318.479,382.83 c -4.521,3.544 -9.524,6.722 -14.947,9.442 0.854,1.108 1.698,2.231 2.522,3.381 3.14,4.378 5.902,8.878 8.332,13.441 l 0,0 0,0 0,0 0,0 7.355,5.59 15.582,24.791 c 0,0 0.769,3.077 0.77,5.854 10e-4,2.282 -0.518,4.361 -2.408,4.361 -1.805,0 -4.859,-1.893 -9.908,-7.312 0.775,4.837 1.162,9.617 1.161,14.281 -0.002,20.878 -7.765,39.448 -23.191,50.51 -9.285,6.658 -20.259,9.818 -31.835,9.818 -25.838,0 -54.686,-15.732 -74.53,-43.405 -12.522,-17.462 -19.387,-36.796 -20.668,-54.836 -0.888,7.572 -1.319,15.046 -1.317,22.364 0.002,10.524 0.902,20.729 2.63,30.447 3.159,8.542 7.26,17.014 12.33,25.229 23.172,37.551 60.191,59.479 94.192,59.479 0.891,0 1.776,-0.015 2.662,-0.045 24.863,-7.664 48.39,-26.863 66.203,-53.82 2.431,-8.604 3.662,-17.84 3.663,-27.412 0.002,-22.254 -6.647,-46.328 -20.345,-68.525 -5.402,-8.756 -11.559,-16.657 -18.253,-23.633"
   id="path3262"
   inkscape:connector-curvature="0" />
	<path
   d="m 314.387,409.094 c -2.43,-4.563 -5.192,-9.063 -8.332,-13.441 -0.824,-1.149 -1.668,-2.273 -2.522,-3.381 -2.289,1.148 -4.652,2.212 -7.085,3.189 l 17.939,13.633"
   id="path3264"
   inkscape:connector-curvature="0" />
	<path
   d="m 314.387,409.094 c -2.43,-4.563 -5.192,-9.063 -8.332,-13.441 -0.824,-1.149 -1.668,-2.273 -2.522,-3.381 -2.289,1.148 -4.652,2.212 -7.085,3.189 l 17.939,13.633"
   id="path3266"
   inkscape:connector-curvature="0" />
	<path
   d="m 271.634,280.362 c -5.773,0.531 -11.643,1.604 -17.521,3.291 -36.35,10.431 -60.425,40.142 -57.949,69.226 18.031,-36.301 45.714,-62.646 75.47,-72.517"
   id="path3268"
   inkscape:connector-curvature="0" />
	<path
   d="m 271.634,280.362 c -5.773,0.531 -11.643,1.604 -17.521,3.291 -36.35,10.431 -60.425,40.142 -57.949,69.226 18.031,-36.301 45.714,-62.646 75.47,-72.517"
   id="path3270"
   inkscape:connector-curvature="0" />
	<path
   d="m 197.986,362.473 c 2.303,-1.885 4.743,-3.631 7.322,-5.223 8.048,-4.966 16.827,-8.064 25.979,-9.439 7.791,-6.633 19.708,-12.379 33.67,-15.542 26.752,-6.061 50.846,-0.349 53.815,12.758 1.804,7.961 -4.611,16.816 -15.914,23.903 0.412,0.311 0.824,0.621 1.234,0.938 1.018,-0.549 1.359,-0.866 1.359,-0.866 l -0.592,1.469 c 4.727,3.716 9.285,7.843 13.619,12.359 20.766,-16.28 31.31,-40.23 24.905,-62.546 -7.782,-27.118 -38.055,-43.021 -71.751,-39.922 -29.755,9.872 -57.439,36.216 -75.47,72.517 0.262,3.071 0.814,6.136 1.685,9.169 0.044,0.143 0.096,0.282 0.139,0.425"
   id="path3272"
   inkscape:connector-curvature="0" />
	<path
   d="m 279.939,279.979 c -2.739,0 -5.508,0.126 -8.305,0.383 -29.755,9.872 -57.439,36.216 -75.47,72.517 0.262,3.071 0.814,6.136 1.685,9.169 0.042,0.144 0.094,0.282 0.137,0.425 l 0,0 0,0 0,0 0,0 0,0 0,0 c 2.303,-1.885 4.743,-3.631 7.322,-5.223 8.048,-4.966 16.827,-8.064 25.979,-9.439 l 0,0 0,0 0,0 0,0 0,0 0,0 0,0 0,0 0,0 0,0 0,0 0,0 c 7.791,-6.633 19.708,-12.379 33.67,-15.542 7.251,-1.643 14.309,-2.421 20.802,-2.421 17.461,0 30.849,5.625 33.014,15.179 0.202,0.894 0.302,1.799 0.302,2.712 -10e-4,7.216 -6.183,14.9 -16.215,21.191 0.412,0.311 0.824,0.621 1.234,0.938 l 0,0 0,0 0,0 0,0 0,0 0,0 c 1.018,-0.549 1.359,-0.866 1.359,-0.866 l 0,0 0,0 -0.592,1.469 c 4.727,3.716 9.285,7.843 13.619,12.359 l 0,0 0,0 0,0 0,0 0,0 0,0 c 16.689,-13.084 26.776,-31.123 26.769,-49.286 -0.002,-4.436 -0.606,-8.879 -1.863,-13.26 -7.137,-24.867 -33.19,-40.305 -63.447,-40.305"
   id="path3274"
   inkscape:connector-curvature="0" />
	<path
   d="m 226.634,352.463 c 1.321,-1.584 2.878,-3.141 4.653,-4.652 -9.152,1.375 -17.931,4.473 -25.979,9.439 -2.579,1.592 -5.019,3.338 -7.322,5.223 0.072,0.243 0.157,0.48 0.232,0.722 0.489,-0.378 0.965,-0.769 1.471,-1.132 7.966,-5.712 17.179,-8.824 26.945,-9.6"
   id="path3276"
   inkscape:connector-curvature="0" />
	<path
   d="m 231.287,347.811 c -9.152,1.375 -17.931,4.473 -25.979,9.439 -2.579,1.592 -5.019,3.338 -7.322,5.223 0.072,0.243 0.157,0.48 0.232,0.722 0.489,-0.378 0.965,-0.769 1.471,-1.132 7.966,-5.712 17.179,-8.824 26.944,-9.6 1.322,-1.584 2.879,-3.141 4.654,-4.652"
   id="path3278"
   inkscape:connector-curvature="0" />
	<path
   d="m 304.093,369.867 c -0.41,-0.317 -0.822,-0.627 -1.234,-0.938 -2.545,1.596 -5.335,3.103 -8.34,4.489 5.257,-1.498 8.114,-2.764 9.574,-3.551"
   id="path3280"
   inkscape:connector-curvature="0" />
	<path
   d="m 302.859,368.929 c -2.545,1.596 -5.335,3.103 -8.34,4.489 5.257,-1.498 8.114,-2.764 9.574,-3.551 -0.41,-0.317 -0.822,-0.627 -1.234,-0.938 l 0,0"
   id="path3282"
   inkscape:connector-curvature="0" />
	<path
   d="m 304.86,370.47 -6.341,15.745 c 1.717,1.947 3.395,3.958 5.013,6.057 5.423,-2.72 10.426,-5.897 14.947,-9.442 -4.333,-4.517 -8.892,-8.643 -13.619,-12.36"
   id="path3284"
   inkscape:connector-curvature="0" />
	<path
   d="m 304.86,370.47 -6.341,15.745 c 1.717,1.947 3.395,3.958 5.013,6.057 l 0,0 0,0 0,0 0,0 0,0 0,0 0,0 0,0 c 5.423,-2.72 10.426,-5.897 14.947,-9.442 -4.333,-4.517 -8.892,-8.643 -13.619,-12.36 l 0,0"
   id="path3286"
   inkscape:connector-curvature="0" />
	<path
   d="m 295.182,394.499 1.265,0.961 c 2.433,-0.977 4.796,-2.041 7.085,-3.189 -1.618,-2.098 -3.296,-4.11 -5.013,-6.057 l -3.337,8.285"
   id="path3288"
   inkscape:connector-curvature="0" />
	<path
   d="m 298.519,386.215 -3.337,8.284 1.265,0.961 c 2.433,-0.977 4.796,-2.041 7.085,-3.189 -1.618,-2.098 -3.296,-4.109 -5.013,-6.056 l 0,0"
   id="path3290"
   inkscape:connector-curvature="0" />
	<path
   d="m 485.729,338.321 c -7.265,-8.098 -16.361,-14.241 -26.972,-17.603 -28.389,-8.994 -59.375,4.482 -78.851,31.29 -6.104,8.402 -11.09,18.101 -14.494,28.845 -9.078,28.652 -4.805,57.716 9.101,78.121 7.946,11.658 19.026,20.499 32.584,24.795 19.7,6.241 40.654,1.663 58.146,-10.678 15.614,-11.018 28.469,-28.22 35.198,-49.456 10.205,-32.213 3.551,-64.956 -14.712,-85.314 z m -10.357,72.927 c -14.695,32.663 -40.286,52.986 -57.157,45.396 -16.871,-7.591 -18.634,-40.223 -3.938,-72.885 14.696,-32.664 40.286,-52.99 57.157,-45.398 16.872,7.59 18.634,40.223 3.938,72.887 z"
   id="path3292"
   inkscape:connector-curvature="0" />
	<path
   d="m 295.182,394.499 3.337,-8.284 6.341,-15.745 0.592,-1.469 c 0,0 -0.342,0.317 -1.359,0.866 -1.46,0.787 -4.316,2.053 -9.574,3.551 -5.618,2.591 -11.966,4.764 -18.809,6.314 -11.031,2.5 -21.606,2.992 -30.438,1.795 -4.818,0.488 -10.003,0.961 -15.604,1.411 0,0 0.465,6.207 2.724,14.26 3.597,12.823 11.743,30.333 29.82,34.944 0,0 37.931,-20.107 59.533,5.652 1.471,1.753 2.809,3.269 4.033,4.583 16.772,18.004 11.547,-2.902 11.547,-2.902 l -15.582,-24.791 -7.355,-5.59 -17.939,-13.633 -1.267,-0.962 z"
   id="path3294"
   inkscape:connector-curvature="0" />
	<path
   d="m 213.106,524.89 c 0,0 -42.344,-39.399 -36.392,-106.145 H 169 l -2.167,24.921 11.833,51.833 34.44,29.391 z"
   id="path3296"
   inkscape:connector-curvature="0"
   style="fill:#ffffff" />
	<polygon
   points="226.634,352.463 196.164,352.463 175.396,375.935 195.989,389.333 "
   id="polygon3298"
   style="fill:#ffffff" />
	<path
   d="m 294.519,373.418 c 0,0 -31.685,15.624 -64.852,9.52 -33.167,-6.104 25,-14.008 25,-14.008 l 39.852,4.488 z"
   id="path3300"
   inkscape:connector-curvature="0"
   style="fill:#ffffff" />
	<path
   d="m 262.211,432.142 c 0,0 62.354,-33.763 64.446,17.548 2.092,51.311 -32.138,30.81 -32.138,30.81 l -32.308,-48.358 z"
   id="path3302"
   inkscape:connector-curvature="0" />
	<path
   d="m 296.447,395.46 c 0,0 37.67,-1.065 55.778,45.904 18.108,46.969 1.189,-21.364 1.189,-21.364 l -13.08,-40.667 -9.224,-8.863 c 0,0 -10.215,14.118 -34.663,24.99 z"
   id="path3304"
   inkscape:connector-curvature="0"
   style="fill:#ffffff" />
	<polygon
   points="201.015,326.416 186.52,360.521 226.634,352.463 "
   id="polygon3306"
   style="fill:#ffffff" />
	<path
   d="m 242.616,418.745 c 0,0 83.716,-9.38 84.05,39.103 C 327,506.331 279,486.547 279,486.547 L 233.812,452.893 241,421.24"
   id="path3308"
   inkscape:connector-curvature="0"
   style="fill:#ffffff" />
	<path
   d="m 314.387,397.397 c 0,0 39.486,12.933 53.8,-26.232 C 382.501,332 397,366.929 397,366.929 l -10.5,27.274 c 0,0 -18.727,44.787 -72.113,22.542 -53.386,-22.245 -17.939,-23.285 -17.939,-23.285 0,0 7.325,-0.165 17.939,3.937 z"
   id="path3310"
   inkscape:connector-curvature="0" />
	<path
   d="m 419.122,375.242 c 0,0 25.51,-49.452 52.404,-49.597 h 6.539 l 8.17,12.129 c 0,0 14.5,102.881 -69.069,116.776 l 8.771,-46.026"
   id="path3312"
   inkscape:connector-curvature="0"
   style="fill:#ffffff" />
	<path
   d="m 491.158,473.091 c 0,0 42.101,-30.15 43.263,-102.621 1.162,-72.471 50.162,-11.137 50.162,-11.137 l -13.667,93.56 -12,7.107 -37,69.309 -9.303,19.191 -56.197,-46.102 34.742,-29.307 z"
   id="path3314"
   inkscape:connector-curvature="0"
   style="fill:#ffffff" />
	<path
   d="m 196.164,352.463 c 0,0 21.884,-82.038 103.193,-70.25 C 380.666,294.001 351,267.333 351,267.333 L 282,251 233.812,270.333 192.369,307 l -9.702,32.667 13.497,12.796 z"
   id="path3316"
   inkscape:connector-curvature="0"
   style="fill:#ffffff" />
	<path
   d="m 192.369,496.267 c 0,0 -6.039,-12.131 -9.702,-24.449 C 179.004,459.5 176.932,378.292 207.966,326.146 239,274 177.5,338.5 177.5,338.5 l -17,57.703 v 70.298 l 31.869,29.766 z"
   id="path3318"
   inkscape:connector-curvature="0"
   style="fill:#ffffff" />
	<path
   d="m 190.42,494.288 c 0,0 -20.409,-48.579 -6.667,-98.828 13.742,-50.249 -14.503,5.568 -14.503,5.568 v 68.519 l 21.17,24.741 z"
   id="path3320"
   inkscape:connector-curvature="0"
   style="fill:#ffffff" />
	<path
   d="m 431,283.553 c 0,0 -29.785,29.773 -68.584,17.05 -38.8,-12.723 -25.883,-48.386 -25.883,-48.386 0,0 5.111,33.312 38.424,29.393 33.312,-3.919 41.15,-20.771 41.15,-20.771 0,0 4.311,7.838 8.23,11.365 3.92,3.528 6.663,11.349 6.663,11.349 z"
   id="path3322"
   inkscape:connector-curvature="0" />
	<polygon
   points="431,283.553 412.333,260.667 420,258.834 434.667,283.553 "
   id="polygon3324"
   style="fill:#ffffff" />
	<circle
   cx="372.646"
   cy="255.021"
   r="15.688"
   id="circle3326"
   d="m 388.334,255.021 c 0,8.66424 -7.02376,15.688 -15.688,15.688 -8.66425,0 -15.688,-7.02376 -15.688,-15.688 0,-8.66425 7.02375,-15.688 15.688,-15.688 8.66424,0 15.688,7.02375 15.688,15.688 z"
   sodipodi:cx="372.646"
   sodipodi:cy="255.021"
   sodipodi:rx="15.688"
   sodipodi:ry="15.688" />
	<path
   d="m 472.658,297.292 c 0,0 33.938,66.44 -2.985,124.824 l 10.827,1.634 14.084,-28.29 4.166,-53.21 -26.092,-44.958 z"
   id="path3328"
   inkscape:connector-curvature="0" />
	<path
   d="m 359.653,386.215 c 0,0 4.069,-5.934 6.208,-9.574 2.139,-3.64 13.438,-27.283 28.622,-40.462 15.184,-13.179 -15.15,-13.512 -15.15,-13.512 l -23.053,27.667 3.373,35.881 z"
   id="path3330"
   inkscape:connector-curvature="0"
   style="fill:#ffffff" />
	<path
   d="m 470.154,325.698 c 0,0 -48.153,1.71 -63.82,55.673 -15.667,53.963 8.381,73.18 8.381,73.18 l 37.467,-33.311 6.818,-47.822 11.154,-47.72 z"
   id="path3332"
   inkscape:connector-curvature="0"
   style="fill:#ffffff" />
	<path
   d="m 421.975,457.848 c 0,0 34.026,11.471 56.359,-43.688 22.333,-55.159 -1.777,-107.783 -1.777,-107.783 l -6.402,-2.61 9.18,21.879 -9.18,19.022 -11.155,71.666 -37.025,41.514 z"
   id="path3334"
   inkscape:connector-curvature="0"
   style="fill:#ffffff" />
	<path
   d="m 226.634,352.463 c 0,0 25.628,-37.583 57.247,-34.523 C 315.5,321 312,341 312,341 l -85.366,11.463 z"
   id="path3336"
   inkscape:connector-curvature="0"
   style="fill:#ffffff" />
	<path
   d="m 229.667,382.938 c 0,0 97.769,-0.63 80.551,-51.534 C 293,280.5 314.387,313.5 314.387,313.5 l 26.569,21.597 -20.644,28.098 -33.101,27.643 H 251 l -21.333,-7.9 z"
   id="path3338"
   inkscape:connector-curvature="0" />
	<path
   d="m 290.421,318.902 c 0,0 19.963,4.638 21.771,22.118 1.808,17.48 14.476,6.791 14.476,6.791 l -2.577,-26.422 -24.733,-15.599 -8.937,13.112 z"
   id="path3340"
   inkscape:connector-curvature="0" />
	<path
   d="m 287.211,514.995 c 0,0 32.248,-7.616 31.268,-65.306 -0.98,-57.69 -49.105,-35.53 -49.105,-35.53 L 283.881,396 l 34.62,16.221 15.969,34.279 v 44.042 L 306,519 287.211,514.995 z"
   id="path3342"
   inkscape:connector-curvature="0" />
	<path
   d="m 280.24,416 -5.9,2.745 c 0,0 45.922,1.595 42.041,56.425 -3.881,54.83 12.14,24.33 12.14,24.33 L 334.47,452.893 318.48,423.75 280.24,409.094 V 416 z"
   id="path3344"
   inkscape:connector-curvature="0" />
	<polygon
   points="229.667,382.938 248.5,418.015 248.5,423.75 231.287,418.745 "
   id="polygon3346"
   style="fill:#ffffff" />
	<path
   d="m 314.387,454.278 c 0,0 14.375,45.804 -30.506,61.513 l -17.644,-25.249 48.15,-36.264 z"
   id="path3348"
   inkscape:connector-curvature="0"
   style="fill:#ffffff" />
	<path
   d="m 180.706,440.045 c 0,0 -0.213,34.779 13.874,60.2 14.087,25.421 0,20.088 0,20.088 l -22.178,-42.717 8.304,-37.571 z"
   id="path3350"
   inkscape:connector-curvature="0"
   style="fill:#ffffff" />
	<path
   d="m 336.533,252.217 c 0,0 -4.283,38.746 29.717,49.514 34,10.768 6.396,19.519 6.396,19.519 L 333.25,291 l -16,-24 19.283,-14.783 z"
   id="path3352"
   inkscape:connector-curvature="0"
   style="fill:#ffffff" />
	<path
   d="m 357.946,279.979 c 0,0 31.823,12.443 56.563,-16.643 24.74,-29.086 -9.26,-11.119 -9.26,-11.119 l -14.512,21.723 -32.791,6.039 z"
   id="path3354"
   inkscape:connector-curvature="0"
   style="fill:#ffffff" />
	<path
   d="m 401.032,418.745 c 0,0 1.25,28.689 20.942,35.806 19.692,7.117 42.353,-15.223 42.353,-15.223 l 10.673,0.339 -18.333,19.171 -23.739,12.979 -47.261,-30.019 15.365,-23.053 z"
   id="path3356"
   inkscape:connector-curvature="0" />
	<path
   d="m 435.594,455.43 c 0,0 28.276,-6.346 44.665,-46.336 16.389,-39.991 10.075,9.651 10.075,9.651 l -35.438,43.589 -19.302,-6.904 z"
   id="path3358"
   inkscape:connector-curvature="0" />
	<path
   d="m 403.719,432.76 c 0,0 18.545,40.154 58.08,5.697 39.535,-34.457 15.535,6.824 15.535,6.824 L 438,471.817 388.333,457.5 403.719,432.76 z"
   id="path3360"
   inkscape:connector-curvature="0" />
	<path
   d="m 401.032,407 c 0,0 -0.7,28.227 11.301,37.28 12.001,9.053 -3.999,9.998 -3.999,9.998 L 388.333,427.925 401.032,407 z"
   id="path3362"
   inkscape:connector-curvature="0" />
	
		<ellipse
   transform="matrix(0.927,0.3751,-0.3751,0.927,177.6274,-138.308)"
   cx="444.07199"
   cy="387.10001"
   rx="38.922001"
   ry="66.702003"
   id="ellipse3364"
   d="m 482.99399,387.10001 c 0,36.8385 -17.42597,66.702 -38.922,66.702 -21.49603,0 -38.922,-29.8635 -38.922,-66.702 0,-36.8385 17.42597,-66.70201 38.922,-66.70201 21.49603,0 38.922,29.86351 38.922,66.70201 z"
   sodipodi:cx="444.07199"
   sodipodi:cy="387.10001"
   sodipodi:rx="38.922001"
   sodipodi:ry="66.702003"
   style="fill:#ffffff" />
	<path
   d="m 123.419,322.667 c 0,0 -26.47,64.515 -9.753,134.833 16.717,70.318 50,98.764 50,98.764 0,0 47.09,52.07 144.878,47.403 C 406.332,599 450.737,519 450.737,519 l 19.417,-11.041 21.375,30.572 -60.529,59.136 -70.406,24 L 192.745,618.35 87.667,529.309 46.333,355.503 123.419,322.667 z"
   id="path3366"
   inkscape:connector-curvature="0"
   style="fill:#ffffff" />
	<path
   d="m 440.685,510.753 c 0,0 -88.769,123.659 -216.477,47.203 l 2.426,-9.456 47.706,18.5 45.973,3 42.687,-21.5 77.685,-37.747 z"
   id="path3368"
   inkscape:connector-curvature="0"
   style="fill:#ffffff" />
	<path
   d="m 117.455,471.817 c 0,0 14.982,52.093 62.378,91.759 15.889,13.297 35.42,25.197 59.25,33.27 C 334,629 299.306,692 299.306,692 L 72,556.264 117.455,471.817 z"
   id="path3370"
   inkscape:connector-curvature="0"
   style="fill:#ffffff" />
	<path
   d="m 250.189,592.135 c 102.54,34.533 216.36,-24.802 253.946,-132.242 37.327,-107.354 -15.358,-222.854 -117.331,-258.199 -31.766,-11.052 -64.59,-12.971 -95.868,-7.104 -1.116,0.213 -2.231,0.437 -3.344,0.669 -0.309,0.063 -0.619,0.122 -0.927,0.187 -7.611,1.624 -15.146,3.709 -22.569,6.219 -57.865,19.748 -107.393,66.739 -130.087,131.369 -38.173,108.229 13.716,224.355 116.18,259.101 z m -75.9,-252.922 c 38.63,-92.417 138.5,-138.467 223.353,-103.046 48.982,20.365 82.376,63.245 94.571,113.484 19.113,19.545 27.071,50.874 18.074,81.638 -5.941,20.285 -18.2,36.707 -33.475,47.219 -41.953,83.768 -137.253,124.725 -218.685,91.575 -85.249,-34.895 -122.674,-138.364 -83.838,-230.87 z"
   id="path3372"
   inkscape:connector-curvature="0" />
	<polygon
   points="494.084,480.664 464.742,484.208 445.5,505.405 472.605,521.87 502.5,497.664 520,420.463 "
   id="polygon3374"
   style="fill:#ffffff" />
	<line
   x1="484.55099"
   y1="477.5"
   x2="462.5"
   y2="475"
   id="line3376"
   style="fill:#ffffff" />
	<path
   d="m 464.422,483.333 5.71,-7.389 c 0,0 43.412,-33.634 39.519,-120.175 -3.895,-86.542 20.967,44.125 20.967,44.125 l -9.654,75.172 -29.458,13.119 -27.084,-4.852 z"
   id="path3378"
   inkscape:connector-curvature="0"
   style="fill:#ffffff" />
	<path
   d="m 486.817,514.89 c 0,0 -29.059,49.133 -72.823,73.719 -43.764,24.586 26.428,30.992 26.428,30.992 l 91,-50.846 -44.605,-53.865 z"
   id="path3380"
   inkscape:connector-curvature="0"
   style="fill:#ffffff" />
	<path
   d="m 209.569,335.113 c 0,0 17.826,-58.453 86.878,-53.533 69.052,4.92 -5.04,-26.558 -5.04,-26.558 l -78.301,30.478 -20.361,32.44 -10.078,45.255 26.902,-28.082 z"
   id="path3382"
   inkscape:connector-curvature="0"
   style="fill:#ffffff" />
	<path
   d="m 184.522,450.646 c 0,0 -4.311,39.633 28.583,74.243 32.894,34.61 -6.529,2.11 -6.529,2.11 l -37.327,-66.951 6.937,-32.123 19.802,2.713 -11.466,20.008 z"
   id="path3384"
   inkscape:connector-curvature="0"
   style="fill:#ffffff" />
	<path
   d="m 186.52,564.246 c 0,0 32.493,30.372 87.82,36.896"
   id="path3386"
   inkscape:connector-curvature="0" />
	<path
   d="m 173.259,544.174 c 0,0 51.775,60.249 150.593,58.901 98.819,-1.348 59.932,50.485 59.932,50.485 L 107.13,640.6 173.259,544.174 z"
   id="path3388"
   inkscape:connector-curvature="0"
   style="fill:#ffffff" />
	<path
   d="m 218.281,351.046 c 0,0 44.794,-48.322 76.199,-29.796 31.405,18.526 -14.24,29.796 -14.24,29.796 l -67.134,19.853 5.175,-19.853 z"
   id="path3390"
   inkscape:connector-curvature="0"
   style="fill:#ffffff" />
	<path
   d="m 479.683,502.938 c 0,0 -21.821,45.613 -71.885,72.817 -47.093,25.59 39.593,35.077 39.593,35.077 l 65.276,-72.498 v -41.792 l -32.984,6.396 z"
   id="path3392"
   inkscape:connector-curvature="0"
   style="fill:#ffffff" />
	<path
   d="m 219.446,496.863 c 0,0 -26.402,-21.984 -38.299,-47.174 -11.897,-25.19 7.46,-20.062 7.46,-20.062 l 45.204,42.54 -14.365,24.696 z"
   id="path3394"
   inkscape:connector-curvature="0"
   style="fill:#ffffff" />
	<path
   d="m 184.338,455.784 c 0,0 2.708,40.635 28.768,69.105 26.06,28.47 -6.529,8.11 -6.529,8.11 l -29.296,-55.5 7.057,-21.715 z"
   id="path3396"
   inkscape:connector-curvature="0"
   style="fill:#ffffff" />
	<path
   d="m 458.265,282.436 c 0,0 20.098,20.043 27.215,50.236 7.118,30.193 -11.242,3.004 -11.242,3.004 l -15.973,-53.24 z"
   id="path3398"
   inkscape:connector-curvature="0"
   style="fill:#ffffff" />
	<path
   d="m 482.857,323.554 c 0,0 22.23,63.054 -19.296,112.984 l -18.061,-27.192 22.968,-53.843 14.389,-31.949 z"
   id="path3400"
   inkscape:connector-curvature="0"
   style="fill:#ffffff" />
	<path
   d="m 499.081,304.845 c 0,0 10.063,22.304 12.194,73.158 2.13,50.854 35.848,45.618 35.848,45.618 l 5.753,-90.034 -53.795,-28.742 z"
   id="path3402"
   inkscape:connector-curvature="0"
   style="fill:#ffffff" />
	<path
   d="m 487.819,449.83 c 0,0 24.599,-27.738 21.39,-98.784 L 503,347.811 h -8.416 v 53.218 l -6.765,48.801 z"
   id="path3404"
   inkscape:connector-curvature="0" />
	<path
   d="m 492.75,294 c 0,0 18.332,26.64 15.416,95.07 C 505.25,457.5 542,422.943 542,422.943 L 556.75,354.441 505.23,310.5 492.75,294 z"
   id="path3406"
   inkscape:connector-curvature="0"
   style="fill:#ffffff" />
	<path
   d="m 184.338,455.784 c 0,0 16.832,110.808 114.414,96.012 97.582,-14.796 42.205,1.36 42.205,1.36 l -28.841,11.09 -82.448,-17.417 -36.922,-31.939 -12.91,-28.343 4.502,-30.763 z"
   id="path3408"
   inkscape:connector-curvature="0"
   style="fill:#ffffff" />
	<path
   d="m 280.24,553.145 c 0,0 69.821,3.949 76.041,-66.598 C 362.501,416 377.509,534 377.509,534 l -32.261,22.219 -45.891,8.027 -19.117,-11.101 z"
   id="path3410"
   inkscape:connector-curvature="0"
   style="fill:#ffffff" />
	<path
   d="m 274.34,516.934 c 0,0 -59.553,0.201 -88.446,-45.116 -28.893,-45.317 -8.613,-7.755 -8.613,-7.755 l 15.088,-24.018 81.971,76.889 z"
   id="path3412"
   inkscape:connector-curvature="0"
   style="fill:#ffffff" />
	<path
   d="m 496.074,436.079 c 0,0 33.256,-80.944 -4.294,-143.703 -37.548,-62.758 1.466,41.051 1.466,41.051 l 1.658,45.367 1.17,57.285 z"
   id="path3414"
   inkscape:connector-curvature="0" />
	<path
   d="m 469.673,469.547 c 0,0 71.156,-45.986 29.408,-162.767 h -6.331 l 4.77,80.319 -27.847,82.448 z"
   id="path3416"
   inkscape:connector-curvature="0" />
	<path
   d="m 511.685,388.164 c 0,0 10.506,-76.191 -48.123,-135.946 -58.629,-59.755 -1.895,12.459 -1.895,12.459 l 35.853,68.656 13.988,56.765"
   id="path3418"
   inkscape:connector-curvature="0" />
	<path
   d="m 377.509,590 c 0,0 60.284,-21.273 77.388,-78.887 17.104,-57.614 54.602,-5.286 54.602,-5.286 L 458.265,595.5 377.509,590 z"
   id="path3420"
   inkscape:connector-curvature="0"
   style="fill:#ffffff" />
	<path
   d="m 318.479,581.908 c 0,0 94.217,1.222 133.702,-79.51 0,0 -18.025,95.396 -135.604,99.666 l 1.902,-20.156 z"
   id="path3422"
   inkscape:connector-curvature="0"
   style="fill:#020202" />
	<path
   d="m 448.718,507.959 c 0,0 -9.374,63.376 -80.213,84.875 -70.838,21.499 74.999,19.833 74.999,19.833 l 40.707,-71.828 0.34,-46.551 -29.654,-3.746 -6.179,17.417 z"
   id="path3424"
   inkscape:connector-curvature="0"
   style="fill:#ffffff" />
	<path
   d="m 258.667,569.667 c 0,0 119.435,52.394 190.051,-73.804 l -8.033,26.471 -18.71,28.285 -46.308,24.381 -41.197,8 -54.23,6 -21.573,-19.333 z"
   id="path3426"
   inkscape:connector-curvature="0" />
	<path
   d="m 445.5,496.863 c 0,0 -9.893,93.422 -115.446,104.279 -105.553,10.857 70.979,27.357 70.979,27.357 L 531.423,520.798 502,488.186 l -56.5,8.677 z"
   id="path3428"
   inkscape:connector-curvature="0"
   style="fill:#ffffff" />
	<path
   d="m 182.667,322.667 c 0,0 -48.497,80.333 -2.832,177.833 C 225.5,598 151,458.838 151,458.838 l -9.5,-69.504 14.5,-54.237 26.667,-12.43 z"
   id="path3430"
   inkscape:connector-curvature="0" />
	<path
   d="m 251.833,567.334 c 0,0 21.813,11.623 61.678,13.082 C 353.376,581.875 337,568.5 337,568.5 l -85.167,-1.166 z"
   id="path3432"
   inkscape:connector-curvature="0"
   style="fill:#ffffff" />
	<path
   d="m 384.38,585.177 c 35.495,-18.927 10.37,17.948 10.37,17.948 l -58.5,18.542"
   id="path3434"
   inkscape:connector-curvature="0"
   style="fill:#ffffff" />
	<path
   d="m 350.984,576.437 c 0,0 51.859,-10.878 90.562,-62.282 38.703,-51.404 27.203,30.02 27.203,30.02 l 5.75,-50.924 -22.318,-5.064 L 427.5,499.5 371,539.78 350.984,576.437 z"
   id="path3436"
   inkscape:connector-curvature="0"
   style="fill:#ffffff" />
	<path
   d="m 182.097,322.788 c 0,0 -5.247,10.341 -8.498,19.47 -3.252,9.129 10.546,2.449 10.546,2.449 l 9.668,-16.88 -3.687,-5.981 -8.029,0.942 z"
   id="path3438"
   inkscape:connector-curvature="0"
   style="fill:#ffffff" />
	<polygon
   points="183.458,323.5 182.097,322.788 183.458,321.846 "
   id="polygon3440"
   style="fill:#ffffff" />
</g>
</svg>